<svg xmlns="http://www.w3.org/2000/svg" viewBox="0 0 512 512" fill="none">
  <!-- Cake Base with Gradient -->
  <defs>
    <linearGradient id="cakeGradient" x1="0%" y1="0%" x2="100%" y2="100%">
      <stop offset="0%" stop-color="#FF6B6B" />
      <stop offset="100%" stop-color="#FF8E8E" />
    </linearGradient>
    <linearGradient id="middleGradient" x1="0%" y1="0%" x2="100%" y2="100%">
      <stop offset="0%" stop-color="#4ECDC4" />
      <stop offset="100%" stop-color="#6EE7B7" />
    </linearGradient>
    <linearGradient id="topGradient" x1="0%" y1="0%" x2="100%" y2="100%">
      <stop offset="0%" stop-color="#FFD166" />
      <stop offset="100%" stop-color="#FFEC99" />
    </linearGradient>
    <filter id="glow" x="-20%" y="-20%" width="140%" height="140%">
      <feGaussianBlur stdDeviation="5" result="blur" />
      <feComposite in="SourceGraphic" in2="blur" operator="over" />
    </filter>
  </defs>
  
  <!-- Cake Plate with Shadow -->
  <ellipse cx="256" cy="430" rx="200" ry="30" fill="#E0E0E0" opacity="0.7" />
  
  <!-- Bottom Layer -->
  <path d="M96 352h320v64H96v-64z" fill="url(#cakeGradient)" stroke="#FF5252" stroke-width="3" stroke-linejoin="round" />
  
  <!-- Middle Layer -->
  <path d="M64 288h384v64H64v-64z" fill="url(#middleGradient)" stroke="#26A69A" stroke-width="3" stroke-linejoin="round" />
  
  <!-- Top Layer -->
  <path d="M96 224h320v64H96v-64z" fill="url(#topGradient)" stroke="#FFB300" stroke-width="3" stroke-linejoin="round" />
  
  <!-- Decorative Icing -->
  <path d="M96 224c20-15 40-15 60 0c20-15 40-15 60 0c20-15 40-15 60 0c20-15 40-15 60 0c20-15 40-15 60 0c20-15 40-15 60 0" stroke="white" stroke-width="6" fill="none" stroke-linecap="round" />
  <path d="M64 288c25-15 50-15 75 0c25-15 50-15 75 0c25-15 50-15 75 0c25-15 50-15 75 0c25-15 50-15 75 0c25-15 50-15 75 0" stroke="white" stroke-width="6" fill="none" stroke-linecap="round" />
  <path d="M96 352c20-15 40-15 60 0c20-15 40-15 60 0c20-15 40-15 60 0c20-15 40-15 60 0c20-15 40-15 60 0c20-15 40-15 60 0" stroke="white" stroke-width="6" fill="none" stroke-linecap="round" />
  
  <!-- Candles with Glow -->
  <g filter="url(#glow)">
    <rect x="136" y="180" width="12" height="44" rx="6" fill="#FF9E80" />
    <rect x="196" y="160" width="12" height="64" rx="6" fill="#B388FF" />
    <rect x="256" y="140" width="12" height="84" rx="6" fill="#82B1FF" />
    <rect x="316" y="160" width="12" height="64" rx="6" fill="#B9F6CA" />
    <rect x="376" y="180" width="12" height="44" rx="6" fill="#FFFF8D" />
    
    <!-- Flames -->
    <circle cx="142" cy="180" r="8" fill="#FFEB3B" />
    <circle cx="202" cy="160" r="8" fill="#FFEB3B" />
    <circle cx="262" cy="140" r="8" fill="#FFEB3B" />
    <circle cx="322" cy="160" r="8" fill="#FFEB3B" />
    <circle cx="382" cy="180" r="8" fill="#FFEB3B" />
  </g>
  
  <!-- Decorations -->
  <circle cx="136" cy="256" r="6" fill="white" />
  <circle cx="196" cy="256" r="6" fill="white" />
  <circle cx="256" cy="256" r="6" fill="white" />
  <circle cx="316" cy="256" r="6" fill="white" />
  <circle cx="376" cy="256" r="6" fill="white" />
  
  <circle cx="106" cy="320" r="6" fill="white" />
  <circle cx="166" cy="320" r="6" fill="white" />
  <circle cx="226" cy="320" r="6" fill="white" />
  <circle cx="286" cy="320" r="6" fill="white" />
  <circle cx="346" cy="320" r="6" fill="white" />
  <circle cx="406" cy="320" r="6" fill="white" />
  
  <circle cx="136" cy="384" r="6" fill="white" />
  <circle cx="196" cy="384" r="6" fill="white" />
  <circle cx="256" cy="384" r="6" fill="white" />
  <circle cx="316" cy="384" r="6" fill="white" />
  <circle cx="376" cy="384" r="6" fill="white" />
  
  <!-- Cherry on top -->
  <circle cx="262" cy="130" r="12" fill="#FF1744" stroke="#D50000" stroke-width="2" />
  <path d="M262 130 Q 270 110 280 105" stroke="#4CAF50" stroke-width="3" fill="none" stroke-linecap="round" />
</svg>