<?xml version="1.0" encoding="UTF-8"?>
<!DOCTYPE svg PUBLIC "-//W3C//DTD SVG 1.1//EN" "http://www.w3.org/Graphics/SVG/1.1/DTD/svg11.dtd">
<svg xmlns="http://www.w3.org/2000/svg" version="1.1" width="285px" height="293px" style="shape-rendering:geometricPrecision; text-rendering:geometricPrecision; image-rendering:optimizeQuality; fill-rule:evenodd; clip-rule:evenodd" xmlns:xlink="http://www.w3.org/1999/xlink">
<g><path style="opacity:1" fill="#f6f6f6" d="M -0.5,-0.5 C 94.5,-0.5 189.5,-0.5 284.5,-0.5C 284.5,97.1667 284.5,194.833 284.5,292.5C 189.5,292.5 94.5,292.5 -0.5,292.5C -0.5,194.833 -0.5,97.1667 -0.5,-0.5 Z"/></g>
<g><path style="opacity:1" fill="#040404" d="M 118.5,58.5 C 118.56,59.0431 118.893,59.3764 119.5,59.5C 120.484,56.5719 120.817,53.5719 120.5,50.5C 122.245,38.1801 128.579,29.0134 139.5,23C 142.783,22.2571 145.783,22.9238 148.5,25C 152.377,28.7083 156.043,32.5416 159.5,36.5C 166.841,22.9971 178.175,16.4971 193.5,17C 197.5,20 197.5,23 193.5,26C 178.999,26.3837 170.332,33.5503 167.5,47.5C 179.761,49.5857 187.927,56.5857 192,68.5C 194.575,79.5312 192.409,89.5312 185.5,98.5C 195.817,99.3323 206.151,99.8323 216.5,100C 236.358,103.001 248.858,114.168 254,133.5C 254.5,167.498 254.667,201.498 254.5,235.5C 269.617,232.781 274.117,238.448 268,252.5C 264.336,262.163 257.503,268.33 247.5,271C 212.038,272.15 176.538,272.65 141,272.5C 106.108,272.657 71.2745,272.157 36.5,271C 23.2397,265.668 15.9064,255.835 14.5,241.5C 14.4062,239.088 15.4062,237.255 17.5,236C 22.4889,235.501 27.4889,235.334 32.5,235.5C 32.3333,202.165 32.5,168.832 33,135.5C 37.3982,116.768 48.8982,104.935 67.5,100C 78.5,99.6667 89.5,99.3333 100.5,99C 90.4945,88.3174 86.9945,75.8174 90,61.5C 90.935,58.8981 92.7683,57.3981 95.5,57C 103.291,56.0757 110.958,56.5757 118.5,58.5 Z"/></g>
<g><path style="opacity:1" fill="#efefef" d="M 140.5,33.5 C 146.511,35.8485 150.511,40.1818 152.5,46.5C 148.41,48.7365 144.41,51.2365 140.5,54C 137.281,57.5518 134.448,61.3851 132,65.5C 127.643,52.9282 130.476,42.2615 140.5,33.5 Z"/></g>
<g><path style="opacity:1" fill="#f4f4f4" d="M 155.5,56.5 C 174.295,55.1304 183.461,63.7971 183,82.5C 176.308,98.1741 165.141,102.674 149.5,96C 141.378,89.3746 138.545,80.8746 141,70.5C 143.871,63.6746 148.704,59.0079 155.5,56.5 Z"/></g>
<g><path style="opacity:1" fill="#7f7f7f" d="M 120.5,50.5 C 120.817,53.5719 120.484,56.5719 119.5,59.5C 118.893,59.3764 118.56,59.0431 118.5,58.5C 119.167,55.8333 119.833,53.1667 120.5,50.5 Z"/></g>
<g><path style="opacity:1" fill="#f2f2f2" d="M 98.5,66.5 C 114.131,64.7292 124.964,71.0625 131,85.5C 131.499,90.1548 131.666,94.8215 131.5,99.5C 109.53,99.5295 98.5295,88.5295 98.5,66.5 Z"/></g>
<g><path style="opacity:1" fill="#f5f5f5" d="M 68.5,109.5 C 118.501,109.333 168.501,109.5 218.5,110C 240.601,117.682 249.101,133.182 244,156.5C 239.316,161.888 233.483,164.388 226.5,164C 221.328,160.915 216.328,157.581 211.5,154C 206.338,151.871 201.005,151.204 195.5,152C 189.83,154.833 184.497,158.166 179.5,162C 177.134,163.233 174.634,164.066 172,164.5C 164.949,161.13 158.116,157.296 151.5,153C 146.167,151 140.833,151 135.5,153C 130.328,156.085 125.328,159.419 120.5,163C 116.833,165 113.167,165 109.5,163C 105.167,160 100.833,157 96.5,154C 91.338,151.871 86.0047,151.204 80.5,152C 74.8303,154.833 69.497,158.166 64.5,162C 59.7995,165.212 55.1328,165.212 50.5,162C 48,160.167 45.5,158.333 43,156.5C 42.2689,148.798 42.4356,141.131 43.5,133.5C 59.1702,133.667 74.8369,133.5 90.5,133C 94.5,130 94.5,127 90.5,124C 76.8212,123.833 63.1545,123.333 49.5,122.5C 54.5224,116.127 60.8558,111.793 68.5,109.5 Z"/></g>
<g><path style="opacity:1" fill="#0c0c0c" d="M 105.5,123.5 C 112.821,124.319 114.154,127.486 109.5,133C 102.075,132.484 100.742,129.318 105.5,123.5 Z"/></g>
<g><path style="opacity:1" fill="#f6f6f6" d="M 243.5,169.5 C 244.497,191.327 244.831,213.327 244.5,235.5C 216.831,235.333 189.165,235.5 161.5,236C 158.9,238.873 158.9,241.706 161.5,244.5C 194.123,245.493 226.79,245.826 259.5,245.5C 257.654,254.279 252.321,259.779 243.5,262C 176.167,262.667 108.833,262.667 41.5,262C 32.6794,259.779 27.3461,254.279 25.5,245.5C 58.2102,245.826 90.8769,245.493 123.5,244.5C 126.32,241.284 125.987,238.451 122.5,236C 95.8354,235.5 69.1687,235.333 42.5,235.5C 42.3334,213.164 42.5,190.831 43,168.5C 51.777,175.825 60.9436,176.325 70.5,170C 75.1766,165.83 80.5099,162.996 86.5,161.5C 88.6341,161.515 90.6341,162.015 92.5,163C 98.8857,169.061 106.386,172.895 115,174.5C 123.614,172.895 131.114,169.061 137.5,163C 142.327,160.853 146.994,161.186 151.5,164C 157.3,169.484 164.134,172.984 172,174.5C 180.293,173.27 187.46,169.77 193.5,164C 197.976,161.123 202.643,160.79 207.5,163C 212.865,167.684 218.865,171.35 225.5,174C 232.115,174.848 238.115,173.348 243.5,169.5 Z"/></g>
<g><path style="opacity:1" fill="#3d3d3d" d="M 243.5,169.5 C 243.56,168.957 243.893,168.624 244.5,168.5C 245.828,190.996 245.828,213.33 244.5,235.5C 244.831,213.327 244.497,191.327 243.5,169.5 Z"/></g>
<g><path style="opacity:1" fill="#0c0c0c" d="M 140.5,235.5 C 147.821,236.319 149.154,239.486 144.5,245C 137.075,244.484 135.742,241.318 140.5,235.5 Z"/></g>
</svg>
